<svg xmlns="http://www.w3.org/2000/svg" viewBox="0 0 105 100">
  <defs>
    <style>
      .cls-1 {
        fill: none;
      }

      .cls-2, .cls-3 {
        stroke: none;
      }

      .cls-3 {
        fill: #212121;
      }
    </style>
  </defs>
  <g id="Path_7" data-name="Path 7" class="cls-1" transform="translate(-1330 -124.858)">
    <path class="cls-2" d="M1382,224.858a50.2,50.2,0,0,1-20-4,48.319,48.319,0,0,1-28-28,50.188,50.188,0,0,1-4-20,52.23,52.23,0,0,1,29-47l22,47,22-48a54.194,54.194,0,0,1,23,19,53,53,0,0,1,9,29c0,7.054-2.275,13.558-5,20a53.207,53.207,0,0,1-11,17,48.966,48.966,0,0,1-16,11A55.1,55.1,0,0,1,1382,224.858Z"/>
    <path class="cls-3" d="M 1382.000244140625 216.8579864501953 C 1388.397583007813 216.8579864501953 1394.748779296875 215.661865234375 1399.883911132813 213.4899291992188 C 1404.882690429688 211.3756561279297 1409.03369140625 208.5109100341797 1413.34326171875 204.2012329101563 C 1416.991821289063 200.5525665283203 1420.117065429688 195.6875762939453 1422.632202148438 189.7415771484375 C 1425.254028320313 183.5427856445313 1427.000244140625 178.2993774414063 1427.000244140625 172.8579864501953 C 1427.000244140625 164.4763031005859 1424.276123046875 155.7456359863281 1419.32958984375 148.2741394042969 C 1416.197509765625 143.5430755615234 1411.844848632813 139.3182373046875 1406.711303710938 135.9615478515625 L 1388.272705078125 176.1912231445313 L 1381.07666015625 191.8918151855469 L 1373.754760742188 176.24951171875 L 1355.549194335938 137.3559417724609 C 1351.343872070313 140.5504913330078 1347.681762695313 144.5385284423828 1344.752319335938 149.1486968994141 C 1340.335083007813 156.0997772216797 1338.000244140625 164.2983245849609 1338.000244140625 172.8579864501953 C 1338.000244140625 178.9445343017578 1339.070434570313 184.309326171875 1341.368286132813 189.7416076660156 C 1343.883056640625 195.687255859375 1347.00830078125 200.5522003173828 1350.656982421875 204.2009887695313 C 1354.306396484375 207.8501892089844 1359.171264648438 210.9754486083984 1365.116455078125 213.4898834228516 C 1370.549560546875 215.7877502441406 1375.91455078125 216.8579864501953 1382.000244140625 216.8579864501953 M 1382.000244140625 224.8579864501953 C 1374.946533203125 224.8579864501953 1368.442138671875 223.5825347900391 1362.000244140625 220.8579864501953 C 1355.778076171875 218.2264251708984 1349.799072265625 214.6565704345703 1345.000244140625 209.8579864501953 C 1340.20166015625 205.0592193603516 1336.6318359375 199.0799102783203 1334.000244140625 192.8579864501953 C 1331.275390625 186.4162750244141 1330.000244140625 179.9122772216797 1330.000244140625 172.8579864501953 C 1330.000244140625 162.9084625244141 1332.68896484375 153.2159881591797 1338.000244140625 144.8579864501953 C 1343.169921875 136.7224884033203 1350.367919921875 130.1047973632813 1359.000244140625 125.8579864501953 L 1381.000244140625 172.8579864501953 L 1403.000244140625 124.8579864501953 C 1412.105712890625 128.9161071777344 1420.482666015625 135.5235748291016 1426.000244140625 143.8579864501953 C 1431.659912109375 152.4066467285156 1435.000244140625 162.5620269775391 1435.000244140625 172.8579864501953 C 1435.000244140625 179.9122772216797 1432.724853515625 186.4162750244141 1430.000244140625 192.8579864501953 C 1427.368408203125 199.0799102783203 1423.798828125 205.0592193603516 1419.000244140625 209.8579864501953 C 1414.201904296875 214.6564483642578 1409.222412109375 218.2262725830078 1403.000244140625 220.8579864501953 C 1396.55859375 223.5825347900391 1389.05419921875 224.8579864501953 1382.000244140625 224.8579864501953 Z"/>
  </g>
</svg>
